<svg xmlns="http://www.w3.org/2000/svg" xmlns:xlink="http://www.w3.org/1999/xlink" version="1.1" id="Layer_1" x="0px" y="0px" width="100px" height="100px" viewBox="5.0 -10.0 100.0 135.0" enable-background="new 0 0 100 100" xml:space="preserve">
<path d="M86.57,49.351c0.002-2.742-2.26-4.379-3.646-5.101c-2.354-1.233-5.915-1.303-8.747-0.97  c-5.646,0.657-11.174,4.316-15.792,5.1L57.41,34.775c10.588-0.211,19.029-0.354,19.93-9.724c0.361-3.759-0.732-8.061-1.699-12.144  c-1.358-5.698-4.85-12.909-10.975-12.909s-23.208,0-29.333,0s-9.616,7.211-10.975,12.909c-0.966,4.083-2.06,8.384-1.698,12.144  c0.9,9.371,9.342,9.513,19.929,9.724l-0.975,13.604c-4.618-0.784-10.146-4.443-15.792-5.1c-2.832-0.333-6.394-0.263-8.747,0.97  c-1.388,0.722-3.648,2.359-3.647,5.101c0.043,1.203,0.75,1.892,1.459,2.674c2.629,2.885,7.983,4.286,12.632,5.104  c-2.688,2.913-3.587,8.316-4.604,13.746c-1.2,6.368-4.521,25.979-5.125,29.125H20.5l3.812-21.214l2.188,0.008  c0,0,0.953-6.138,1.502-9.517c0.477-3.35,1.299-7.113,2.79-9.23c1.98-2.806,10.57-2.169,14.949-1.946  c2.447,0.165,6.135,0.123,8.519,0c4.379-0.223,12.969-0.859,14.948,1.946c1.49,2.117,2.313,5.881,2.79,9.23  c0.549,3.379,1.502,9.517,1.502,9.517l2.188-0.008L79.5,100h2.709c-0.605-3.146-3.926-22.757-5.126-29.125  c-1.017-5.43-1.917-10.833-4.604-13.746c4.65-0.818,10.004-2.22,12.633-5.104C85.82,51.242,86.527,50.553,86.57,49.351z"/>
<text x="0.0" y="117.5" font-size="5.0" font-weight="bold" font-family="Helvetica Neue, Helvetica, Arial-Unicode, Arial, Sans-serif" fill="#000000">Created by Joris Hoogendoorn</text><text x="0.0" y="122.5" font-size="5.0" font-weight="bold" font-family="Helvetica Neue, Helvetica, Arial-Unicode, Arial, Sans-serif" fill="#000000">from the Noun Project</text></svg>