<svg xmlns="http://www.w3.org/2000/svg" xmlns:xlink="http://www.w3.org/1999/xlink" version="1.1" id="Layer_1" x="0px" y="0px" width="51.875px" height="100px" viewBox="2.59375 -10.0 51.875 135.0" enable-background="new 0 0 51.875 100" xml:space="preserve">
<path d="M50.342,59.217v1.513v3.182V98.5h-4.693V63.911h-1.182v27.206H40.17V63.911H11.775v27.206H7.478V63.911H6.296V98.5H1.999  V63.911v-3.182v-1.513H50.342z M11.775,23.843h2.361v33.299h2.779V23.843h2.149v33.299h2.779V23.843h3.065v33.299h2.78V23.843h2.571  v33.299h2.778V23.843h2.645v33.299h2.779V23.843h1.707v33.299h4.297V1.469H40.17v5.157H11.775V1.469H7.478v55.673h4.297V23.843z"/>
<text x="0.0" y="117.5" font-size="5.0" font-weight="bold" font-family="Helvetica Neue, Helvetica, Arial-Unicode, Arial, Sans-serif" fill="#000000">Created by Ashley Bedore</text><text x="0.0" y="122.5" font-size="5.0" font-weight="bold" font-family="Helvetica Neue, Helvetica, Arial-Unicode, Arial, Sans-serif" fill="#000000">from the Noun Project</text></svg>